HIERARCHY
ROOT hip
{
  OFFSET 0 0 0
  CHANNELS 6 Xposition Yposition Zposition Zrotation Yrotation Xrotation
  JOINT abdomen
  {
    OFFSET 0 20.6881 -0.73152
    CHANNELS 3 Zrotation Xrotation Yrotation
    JOINT chest
    {
      OFFSET 0 11.7043 -0.48768
      CHANNELS 3 Zrotation Xrotation Yrotation
      JOINT neck
      {
        OFFSET 0 22.1894 -2.19456
        CHANNELS 3 Zrotation Xrotation Yrotation
        JOINT head
        {
          OFFSET -0.24384 7.07133 1.2192
          CHANNELS 3 Zrotation Xrotation Yrotation
          JOINT leftEye
          {
            OFFSET 4.14528 8.04674 8.04672
            CHANNELS 3 Zrotation Xrotation Yrotation
            End Site
            {
              OFFSET 1 0 0
            }
          }
          JOINT rightEye
          {
            OFFSET -3.6576 8.04674 8.04672
            CHANNELS 3 Zrotation Xrotation Yrotation
            End Site
            {
              OFFSET 1 0 0
            }
          }
        }
      }
      JOINT rCollar
      {
        OFFSET -2.68224 19.2634 -4.8768
        CHANNELS 3 Zrotation Xrotation Yrotation
        JOINT rShldr
        {
          OFFSET -8.77824 -1.95073 1.46304
          CHANNELS 3 Zrotation Xrotation Yrotation
          JOINT rForeArm
          {
            OFFSET -28.1742 -1.7115 0.48768
            CHANNELS 3 Zrotation Xrotation Yrotation
            JOINT rHand
            {
              OFFSET -22.5879 0.773209 7.07136
              CHANNELS 3 Zrotation Xrotation Yrotation
              JOINT rThumb1
              {
                OFFSET -1.2192 -0.487915 3.41376
                CHANNELS 3 Zrotation Xrotation Yrotation
                JOINT rThumb2
                {
                  OFFSET -3.37035 -0.52449 3.41376
                  CHANNELS 3 Zrotation Xrotation Yrotation
                  End Site
                  {
                    OFFSET -1.78271 -1.18214 1.43049
                  }
                }
              }
              JOINT rIndex1
              {
                OFFSET -7.75947 0.938293 5.60832
                CHANNELS 3 Zrotation Xrotation Yrotation
                JOINT rIndex2
                {
                  OFFSET -2.54057 -0.884171 1.56538
                  CHANNELS 3 Zrotation Xrotation Yrotation
                  End Site
                  {
                    OFFSET -1.62519 -0.234802 1.16502
                  }
                }
              }
              JOINT rMid1
              {
                OFFSET -8.24714 1.18213 3.41376
                CHANNELS 3 Zrotation Xrotation Yrotation
                JOINT rMid2
                {
                  OFFSET -3.10165 -0.590103 1.0647
                  CHANNELS 3 Zrotation Xrotation Yrotation
                  End Site
                  {
                    OFFSET -2.48547 -0.328903 0.83742
                  }
                }
              }
              JOINT rRing1
              {
                OFFSET -8.82822 0.546677 1.51678
                CHANNELS 3 Zrotation Xrotation Yrotation
                JOINT rRing2
                {
                  OFFSET -2.60934 -0.819778 -0.0198488
                  CHANNELS 3 Zrotation Xrotation Yrotation
                  End Site
                  {
                    OFFSET -2.33842 -0.294052 0.168128
                  }
                }
              }
              JOINT rPinky1
              {
                OFFSET -8.27202 -0.0477905 -0.4584
                CHANNELS 3 Zrotation Xrotation Yrotation
                JOINT rPinky2
                {
                  OFFSET -1.82734 -0.647385 -0.700984
                  CHANNELS 3 Zrotation Xrotation Yrotation
                  End Site
                  {
                    OFFSET -1.69225 -0.51767 -0.607171
                  }
                }
              }
            }
          }
        }
      }
      JOINT lCollar
      {
        OFFSET 2.68224 19.2634 -4.8768
        CHANNELS 3 Zrotation Xrotation Yrotation
        JOINT lShldr
        {
          OFFSET 8.77824 -1.95073 1.46304
          CHANNELS 3 Zrotation Xrotation Yrotation
          JOINT lForeArm
          {
            OFFSET 28.1742 -1.7115 0.48768
            CHANNELS 3 Zrotation Xrotation Yrotation
            JOINT lHand
            {
              OFFSET 22.5879 0.773209 7.07136
              CHANNELS 3 Zrotation Xrotation Yrotation
              JOINT lThumb1
              {
                OFFSET 1.2192 -0.487915 3.41376
                CHANNELS 3 Zrotation Xrotation Yrotation
                JOINT lThumb2
                {
                  OFFSET 3.37035 -0.52449 3.41376
                  CHANNELS 3 Zrotation Xrotation Yrotation
                  End Site
                  {
                    OFFSET 1.78271 -1.18214 1.43049
                  }
                }
              }
              JOINT lIndex1
              {
                OFFSET 7.75947 0.938293 5.60832
                CHANNELS 3 Zrotation Xrotation Yrotation
                JOINT lIndex2
                {
                  OFFSET 2.54057 -0.884171 1.56538
                  CHANNELS 3 Zrotation Xrotation Yrotation
                  End Site
                  {
                    OFFSET 1.62519 -0.234802 1.16502
                  }
                }
              }
              JOINT lMid1
              {
                OFFSET 8.24714 1.18213 3.41376
                CHANNELS 3 Zrotation Xrotation Yrotation
                JOINT lMid2
                {
                  OFFSET 3.10165 -0.590103 1.0647
                  CHANNELS 3 Zrotation Xrotation Yrotation
                  End Site
                  {
                    OFFSET 2.48547 -0.328903 0.83742
                  }
                }
              }
              JOINT lRing1
              {
                OFFSET 8.82822 0.546677 1.51678
                CHANNELS 3 Zrotation Xrotation Yrotation
                JOINT lRing2
                {
                  OFFSET 2.60934 -0.819778 -0.0198488
                  CHANNELS 3 Zrotation Xrotation Yrotation
                  End Site
                  {
                    OFFSET 2.33842 -0.294052 0.168128
                  }
                }
              }
              JOINT lPinky1
              {
                OFFSET 8.27202 -0.0477905 -0.4584
                CHANNELS 3 Zrotation Xrotation Yrotation
                JOINT lPinky2
                {
                  OFFSET 1.82734 -0.647385 -0.700984
                  CHANNELS 3 Zrotation Xrotation Yrotation
                  End Site
                  {
                    OFFSET 1.69225 -0.51767 -0.607171
                  }
                }
              }
            }
          }
        }
      }
    }
  }
  JOINT rButtock
  {
    OFFSET -8.77824 4.35084 1.2192
    CHANNELS 3 Zrotation Xrotation Yrotation
    JOINT rThigh
    {
      OFFSET 0 -1.70687 -2.19456
      CHANNELS 3 Zrotation Xrotation Yrotation
      JOINT rShin
      {
        OFFSET 0 -36.8199 0.73152
        CHANNELS 3 Zrotation Xrotation Yrotation
        JOINT rFoot
        {
          OFFSET 0.73152 -45.1104 -5.12064
          CHANNELS 3 Zrotation Xrotation Yrotation
          End Site
          {
            OFFSET -1.1221 -3.69964 12.103
          }
        }
      }
    }
  }
  JOINT lButtock
  {
    OFFSET 8.77824 4.35084 1.2192
    CHANNELS 3 Zrotation Xrotation Yrotation
    JOINT lThigh
    {
      OFFSET 0 -1.70687 -2.19456
      CHANNELS 3 Zrotation Xrotation Yrotation
      JOINT lShin
      {
        OFFSET 0 -36.8199 0.73152
        CHANNELS 3 Zrotation Xrotation Yrotation
        JOINT lFoot
        {
          OFFSET -0.73152 -45.1104 -5.12064
          CHANNELS 3 Zrotation Xrotation Yrotation
          End Site
          {
            OFFSET 1.1221 -3.69964 12.103
          }
        }
      }
    }
  }
}
MOTION
Frames:	4
Frame Time:	0.03333
-5.173923503089554 36.89647699073378 -0.8926682289332326 -29.293006896972656 71.96719360351562 -26.32004737854004 5.004199028015137 13.531999588012695 13.784199714660645 -0.3804360628128052 -7.9710693359375 3.8231892585754395 3.0649194717407227 15.360700607299805 15.864398956298828 -6.043999195098877 -21.880098342895508 30.035993576049805 -0.0 0.0 -0.0 -0.0 0.0 -0.0 8.269441988811854e-13 1.3485551651065686e-12 4.707220941160828e-13 40.71299743652344 53.98440170288086 15.38390064239502 -28.302396774291992 -32.957298278808594 72.02469635009766 -0.5767509341239929 -21.05950164794922 -3.102139949798584 -5.470044972533117e-10 5.059753171998693e-10 6.146421704933402e-10 -9.545353396589462e-10 8.724388433911656e-10 1.0501427505360539e-09 -5.470044972533117e-10 5.059753171998693e-10 6.146421704933402e-10 7.7309088706970215 5.474880218505859 0.41731396317481995 -5.470044972533117e-10 5.059753171998693e-10 6.146484987645806e-10 2.9055399894714355 0.9651829600334167 0.10290198773145676 -5.470044972533117e-10 5.059753171998693e-10 6.146484987645806e-10 10.27859878540039 0.73180091381073 0.025912299752235413 -5.470172093069436e-10 5.059880292535013e-10 6.146548825469722e-10 2.2216696739196777 -0.7334870100021362 -0.2089199721813202 8.269441988811854e-13 1.3485551651065686e-12 4.707220941160828e-13 2.434929609298706 -1.2069300413131714 -99.25199127197266 26.851497650146484 -25.85409927368164 -60.64769744873047 1.1423299312591553 -28.8456974029541 4.4396491050720215 -4.816886334246817e-10 -6.379823336288837e-09 2.196529180764628e-09 -8.811026352972817e-10 -1.1016995316026623e-08 3.784471847012583e-09 -4.816886334246817e-10 -6.379823336288837e-09 2.1965482766006517e-09 -7.7309088706970215 5.474880218505859 -0.41731396317481995 -4.816886334246817e-10 -6.379823336288837e-09 2.196529180764628e-09 -2.9055399894714355 0.9651829600334167 -0.10290198773145676 -4.816886334246817e-10 -6.379823336288837e-09 2.196529180764628e-09 -10.27859878540039 0.73180091381073 -0.025912299752235413 -4.816886334246817e-10 -6.379823336288837e-09 2.196529180764628e-09 -2.2216696739196777 -0.7334870100021362 0.2089199721813202 -0.0 0.0 -0.0 0.4582881033420563 -13.877598762512207 8.61378002166748 -1.682610034942627 68.84249877929688 2.801569938659668 -9.70612907409668 -13.571199417114258 -21.289899826049805 -0.0 0.0 -0.0 17.912094116210938 -67.67790222167969 -2.123049736022949 1.2636396884918213 59.30690383911133 -0.5811789631843567 0.14901399612426758 12.687699317932129 0.714104950428009
-6.150186240099866 37.008147168568904 -0.809016387537894 -31.0059871673584 73.4428939819336 -27.750015258789062 4.426140308380127 13.40429973602295 13.698799133300781 -0.23098094761371613 -8.048401832580566 3.790289878845215 3.010819673538208 15.355698585510254 15.732200622558594 -5.953189849853516 -22.116498947143555 29.78999900817871 -0.0 0.0 -0.0 -0.0 0.0 -0.0 6.106664653116045e-13 4.503665235883192e-12 5.025275985268141e-13 35.149497985839844 55.188297271728516 20.763399124145508 -28.317901611328125 -33.11159896850586 72.26519775390625 -0.6446120142936707 -22.17749786376953 -3.2847096920013428 -9.93070847776778e-10 -1.4765405564887146e-10 -9.776197629207672e-10 -1.6939760705270146e-09 -2.80677564523657e-10 -1.7095607152128878e-09 -9.93070847776778e-10 -1.4765405564887146e-10 -9.776134346495269e-10 7.7309088706970215 5.474880218505859 0.41731396317481995 -9.93070847776778e-10 -1.476413435952395e-10 -9.776134346495269e-10 2.9055399894714355 0.9651829600334167 0.10290198773145676 -9.93070847776778e-10 -1.476413435952395e-10 -9.77606995355984e-10 10.27859878540039 0.73180091381073 0.025912299752235413 -9.930836153415612e-10 -1.476413435952395e-10 -9.776006670847437e-10 2.2216696739196777 -0.7334870100021362 -0.2089199721813202 6.106664653116045e-13 4.503665235883192e-12 5.025275985268141e-13 5.133979320526123 -2.1796700954437256 -100.85299682617188 27.796098709106445 -29.411401748657227 -66.21409606933594 1.225790023803711 -29.73790168762207 4.6062397956848145 -4.085867477687799e-10 -1.0597798194567076e-08 3.2499478663794434e-09 -7.726457251777674e-10 -1.8248597299930225e-08 5.5981574931252e-09 -4.085867477687799e-10 -1.0597798194567076e-08 3.249966962215467e-09 -7.7309088706970215 5.474880218505859 -0.41731396317481995 -4.085867477687799e-10 -1.0597798194567076e-08 3.2499478663794434e-09 -2.9055399894714355 0.9651829600334167 -0.10290198773145676 -4.085867477687799e-10 -1.0597798194567076e-08 3.2499478663794434e-09 -10.27859878540039 0.73180091381073 -0.025912299752235413 -4.085867477687799e-10 -1.0597798194567076e-08 3.2499478663794434e-09 -2.2216696739196777 -0.7334870100021362 0.2089199721813202 -0.0 0.0 -0.0 2.1691999435424805 -14.93950080871582 12.023799896240234 -1.7715500593185425 69.44869995117188 2.854559898376465 -9.30735969543457 -14.547301292419434 -19.761398315429688 -0.0 0.0 -0.0 13.0888032913208 -67.42919158935547 -8.274089813232422 1.0762799978256226 56.044395446777344 -0.31558796763420105 0.03156572952866554 15.070499420166016 1.26829993724823
-7.2041420587539555 37.17785687887621 -0.6354101743710139 -33.27500534057617 75.17149353027344 -29.659954071044922 3.894829273223877 13.256099700927734 13.411799430847168 -0.10276595503091812 -8.096099853515625 3.7066690921783447 2.9689202308654785 15.256498336791992 15.62230110168457 -5.892729759216309 -22.250198364257812 29.58319664001465 -0.0 0.0 -0.0 -0.0 0.0 -0.0 2.9261101462847716e-13 9.096385970852605e-12 3.1169435522199196e-13 30.211898803710938 55.89689636230469 25.671598434448242 -28.341598510742188 -33.36940002441406 72.67089080810547 -0.795569896697998 -24.47159767150879 -3.667370080947876 -1.015054928998893e-09 -4.3129591564827763e-10 -1.6215230269622793e-09 -1.7206418512216715e-09 -7.816148839268067e-10 -2.823658196149381e-09 -1.015054928998893e-09 -4.3128320359464567e-10 -1.6215230269622793e-09 7.7309088706970215 5.474880218505859 0.41731396317481995 -1.015054928998893e-09 -4.3128320359464567e-10 -1.6215230269622793e-09 2.9055399894714355 0.9651829600334167 0.10290198773145676 -1.015054928998893e-09 -4.3128320359464567e-10 -1.6215102593974962e-09 10.27859878540039 0.73180091381073 0.025912299752235413 -1.0150675855413738e-09 -4.3128320359464567e-10 -1.6214976028550154e-09 2.2216696739196777 -0.7334870100021362 -0.2089199721813202 2.9261101462847716e-13 9.096385970852605e-12 3.1169435522199196e-13 7.483540058135986 -3.383209705352783 -102.31499481201172 28.280399322509766 -32.691898345947266 -71.57099151611328 1.2599900960922241 -30.130203247070312 4.678670406341553 -3.749873744851584e-10 -1.1021193735416546e-08 3.0843871900998465e-09 -7.081822905874446e-10 -1.8916399113777516e-08 5.306767913992871e-09 -3.7500008653879036e-10 -1.1021193735416546e-08 3.084400068686932e-09 -7.7309088706970215 5.474880218505859 -0.41731396317481995 -3.749873744851584e-10 -1.1021193735416546e-08 3.0843871900998465e-09 -2.9055399894714355 0.9651829600334167 -0.10290198773145676 -3.7500008653879036e-10 -1.1021193735416546e-08 3.0843871900998465e-09 -10.27859878540039 0.73180091381073 -0.025912299752235413 -3.749873744851584e-10 -1.1021193735416546e-08 3.0843871900998465e-09 -2.2216696739196777 -0.7334870100021362 0.2089199721813202 -0.0 0.0 -0.0 3.8670599460601807 -15.932098388671875 14.999499320983887 -1.8141100406646729 69.66980743408203 2.8565595149993896 -9.006030082702637 -15.497100830078125 -18.616003036499023 -0.0 0.0 -0.0 8.69591999053955 -66.82689666748047 -14.040199279785156 0.8918529748916626 52.06779479980469 -0.05283529683947563 -0.0891423150897026 17.770498275756836 1.5898100137710571
-8.327139350529238 37.409502744577196 -0.5168079148172827 -37.76000213623047 76.88790130615234 -33.769981384277344 3.640899658203125 13.155499458312988 12.886999130249023 -0.14485996961593628 -8.03390121459961 3.5617096424102783 3.0553200244903564 15.064698219299316 15.639699935913086 -6.133291244506836 -22.155698776245117 29.574296951293945 -0.0 0.0 -0.0 -0.0 0.0 -0.0 3.5622210476510263e-13 9.47805202378138e-12 1.2722218027325094e-13 26.529998779296875 56.108795166015625 29.60249900817871 -28.3655948638916 -33.69580078125 73.20259857177734 -0.9928492903709412 -27.131200790405273 -4.127890110015869 -4.703276657025413e-10 1.2997399823078126e-09 6.905365723675061e-10 -8.303155385469552e-10 2.248308428320911e-09 1.1770786567666391e-09 -4.703149536489093e-10 1.2997399823078126e-09 6.905365723675061e-10 7.7309088706970215 5.474880218505859 0.41731396317481995 -4.703276657025413e-10 1.2997399823078126e-09 6.905365723675061e-10 2.9055399894714355 0.9651829600334167 0.10290198773145676 -4.703149536489093e-10 1.2997399823078126e-09 6.905365723675061e-10 10.27859878540039 0.73180091381073 0.025912299752235413 -4.703276657025413e-10 1.2997399823078126e-09 6.905429006387465e-10 2.2216696739196777 -0.7334870100021362 -0.2089199721813202 3.5622210476510263e-13 9.47805202378138e-12 1.2722218027325094e-13 9.509469985961914 -4.603980541229248 -103.72200012207031 28.448898315429688 -35.62080001831055 -76.37269592285156 1.3263099193572998 -30.81869888305664 4.8094096183776855 -1.2650973602035265e-09 -3.768473533227734e-09 1.6684997827809411e-09 -2.215663430504833e-09 -6.3636407254819005e-09 2.8412721064796642e-09 -1.2651101277683097e-09 -3.768473533227734e-09 1.6685125503457243e-09 -7.7309088706970215 5.474880218505859 -0.41731396317481995 -1.2651101277683097e-09 -3.768473533227734e-09 1.6684997827809411e-09 -2.9055399894714355 0.9651829600334167 -0.10290198773145676 -1.2651101277683097e-09 -3.768473533227734e-09 1.6684997827809411e-09 -10.27859878540039 0.73180091381073 -0.025912299752235413 -1.2650973602035265e-09 -3.768473533227734e-09 1.6684997827809411e-09 -2.2216696739196777 -0.7334870100021362 0.2089199721813202 -0.0 0.0 -0.0 5.390470504760742 -16.836801528930664 17.007299423217773 -1.802169919013977 69.45040130615234 2.7914397716522217 -8.890519142150879 -15.75059986114502 -18.389997482299805 -0.0 0.0 -0.0 4.968321323394775 -65.72279357910156 -19.47460174560547 0.7061349749565125 47.0359992980957 0.2170269936323166 -0.19917798042297363 21.78329849243164 1.565699815750122
